<?xml version="1.0" encoding="UTF-8"?><svg id="Layer_2" xmlns="http://www.w3.org/2000/svg" viewBox="0 0 31.1906 37.6504"><g id="Components"><g id="_528a75f4-cf89-4678-a528-6d016b1ebecd_1"><path d="M26.6229,4.5678h0C20.5325-1.5226,10.6581-1.5226,4.5678,4.5678c-6.0904,6.0904-6.0904,15.9648,0,22.055l11.0276,11.0276,11.0276-11.0276c6.0903-6.0903,6.0903-15.9647,0-22.055ZM13.5648,18.3389c-.8351.8351-1.6659.8295-2.0842.4709-.4488-.3842-.6979-.8848-.9399-1.3675-.2026-.4036-.394-.7851-.6867-1.0777-1.0403-1.0403-2.7328-1.0403-3.773,0s-1.0401,2.7326.0002,3.7729c.297.297.6781.4861,1.0817.6862.4792.2376.9739.4848,1.366.9369.3585.4187.3642,1.2499-.4711,2.0852-.9126.9126-1.996,1.3801-2.4765,1.5556C.4673,20.1704.3158,11.5974,5.2266,6.1858c.2801.6675.7741,1.5828,1.5979,2.4066,1.1754,1.1754,2.4365,1.0883,3.1109.5098.5684-.4868.8629-1.0807,1.1228-1.6046.1719-.346.3343-.6731.5433-.8821.7456-.7455,1.9587-.7457,2.7043-.0002.7455.7456.7454,1.9587-.0002,2.7043-.2058.2058-.5352.3713-.8838.5466-.5246.2628-1.1191.5608-1.6003,1.1221-.5784.6746-.6655,1.9357.5098,3.111,1.0389,1.0389,2.2396,1.5514,2.7949,1.7479-.1829.5045-.6496,1.5799-1.5614,2.4918ZM15.3571,15.1264c-.5036-.1821-1.5779-.6479-2.4914-1.5614-.8351-.8351-.8294-1.666-.4708-2.0847.3817-.4453.8828-.6966,1.3691-.9404.4029-.2026.7836-.3937,1.076-.6861,1.0403-1.0402,1.0403-2.7327,0-3.7728-1.0401-1.0402-2.7326-1.0402-3.7728,0-.2971.297-.4861.6781-.6872,1.0834-.2387.4805-.4853.9774-.9364,1.3645-.4188.3585-1.2498.3641-2.085-.4711-.8854-.8854-1.3491-1.909-1.5559-2.4767C11.034.4675,19.607.3161,25.0187,5.2266c-.6677.2805-1.5832.7747-2.4064,1.598-1.1753,1.1753-1.0883,2.4363-.5101,3.1104.4864.5719,1.0855.8661,1.6046,1.1231.3462.1717.6731.3339.8825.5435.7456.7455.7455,1.9586,0,2.7042-.7455.7455-1.9584.7455-2.704-.0002-.2065-.2065-.3722-.5365-.5502-.8909-.2624-.5233-.559-1.1174-1.119-1.5933-.6742-.5785-1.9352-.6654-3.1107.5102-1.0373,1.0372-1.5511,2.2392-1.7481,2.7947ZM25.9781,25.0189c-.2801-.6676-.7743-1.583-1.598-2.4067-1.1753-1.1753-2.4365-1.0883-3.1113-.51-.5673.4864-.8618,1.0795-1.1225,1.6048-.1719.346-.3342.673-.5435.8822-.7455.7456-1.9585.7456-2.7041,0-.7456-.7455-.7456-1.9585,0-2.7041.2069-.2069.5355-.3718.8839-.5465.525-.2632,1.1199-.5617,1.6003-1.1225.5785-.6745.6654-1.9357-.5099-3.111-1.0384-1.0384-2.2392-1.5513-2.7947-1.748.1831-.5045.6499-1.5802,1.561-2.4913.8353-.8352,1.666-.8299,2.0844-.4713.4468.3816.6949.8784.9411,1.3697.2024.4028.3937.7833.6859,1.0756,1.0401,1.0401,2.7324,1.0403,3.7725.0002,1.0403-1.0403,1.0403-2.7328.0002-3.7729-.2969-.2969-.6778-.4859-1.0819-.6862-.4797-.2384-.9755-.4867-1.3659-.937-.3585-.419-.3642-1.2502.4708-2.0852.8859-.8859,1.9091-1.3493,2.4766-1.5558,5.1138,5.2307,5.2654,13.8038.355,19.2158Z" style="fill:#312783; stroke-width:0px;"/></g></g></svg>